<?xml version="1.0" encoding="UTF-8" standalone="no"?>
<svg
   viewBox="0 0 640 640"
   version="1.1"
   id="svg1"
   sodipodi:docname="box-archive-solid-full.svg"
   inkscape:version="1.4.2 (f4327f4, 2025-05-13)"
   xmlns:inkscape="http://www.inkscape.org/namespaces/inkscape"
   xmlns:sodipodi="http://sodipodi.sourceforge.net/DTD/sodipodi-0.dtd"
   xmlns="http://www.w3.org/2000/svg"
   xmlns:svg="http://www.w3.org/2000/svg">
  <defs
     id="defs1" />
  <sodipodi:namedview
     id="namedview1"
     pagecolor="#ffffff"
     bordercolor="#000000"
     borderopacity="0.25"
     inkscape:showpageshadow="2"
     inkscape:pageopacity="0.0"
     inkscape:pagecheckerboard="0"
     inkscape:deskcolor="#d1d1d1"
     showgrid="false"
     inkscape:zoom="0.69765625"
     inkscape:cx="66.651736"
     inkscape:cy="152.65398"
     inkscape:window-width="1920"
     inkscape:window-height="1137"
     inkscape:window-x="-8"
     inkscape:window-y="-8"
     inkscape:window-maximized="1"
     inkscape:current-layer="svg1" />
  <rect
     style="fill:#272838;fill-opacity:1;stroke-width:3.10168"
     id="rect1"
     width="640"
     height="639.91309"
     x="2.0985549e-06"
     y="0.086943097" />
  <!--!Font Awesome Free 7.0.0 by @fontawesome - https://fontawesome.com License - https://fontawesome.com/license/free Copyright 2025 Fonticons, Inc.-->
  <path
     d="M64 128C64 110.3 78.3 96 96 96L544 96C561.7 96 576 110.3 576 128L576 160C576 177.7 561.7 192 544 192L96 192C78.3 192 64 177.7 64 160L64 128zM96 240L544 240L544 480C544 515.3 515.3 544 480 544L160 544C124.7 544 96 515.3 96 480L96 240zM248 304C234.7 304 224 314.7 224 328C224 341.3 234.7 352 248 352L392 352C405.3 352 416 341.3 416 328C416 314.7 405.3 304 392 304L248 304z"
     id="path1"
     style="fill:#ffb52c;fill-opacity:1" />
</svg>
